<?xml version="1.0" encoding="UTF-8"?><svg id="Layer_1" xmlns="http://www.w3.org/2000/svg" viewBox="0 0 4897.23 1080"><defs><style>.cls-1{fill:#fff;}.cls-2{fill:#09705c;}.cls-3{fill:#3d3d3c;}</style></defs><g><path class="cls-3" d="M1184.35,833.59l50.7-112.46c54.39,39.64,135.5,67.29,212.93,67.29,88.49,0,124.44-29.5,124.44-69.13,0-120.75-375.17-37.79-375.17-277.46,0-109.69,88.49-200.95,271.93-200.95,81.12,0,164.08,19.35,223.99,57.15l-46.09,113.38c-59.91-34.11-121.68-50.7-178.83-50.7-88.49,0-122.6,33.19-122.6,73.75,0,118.91,375.17,36.87,375.17,273.77,0,107.85-89.41,200.02-273.77,200.02-102.32,0-205.56-30.42-262.71-74.66Z"/><path class="cls-3" d="M2277.57,689.79h-375.17c13.83,61.76,66.37,99.55,141.96,99.55,52.54,0,90.33-15.67,124.44-47.93l76.51,82.96c-46.09,52.54-115.22,80.19-204.64,80.19-171.45,0-282.99-107.85-282.99-255.33s113.38-255.34,264.55-255.34,258.1,97.71,258.1,257.18c0,11.06-1.84,26.73-2.77,38.71Zm-377.01-83.88h244.27c-10.14-62.68-57.15-103.24-121.68-103.24s-112.46,39.64-122.6,103.24Z"/><path class="cls-3" d="M2665.63,393.9v132.74c-11.99-.92-21.2-1.84-32.26-1.84-79.27,0-131.82,43.32-131.82,138.27v234.13h-143.8V401.27h137.35v65.45c35.03-47.93,94.02-72.82,170.53-72.82Z"/><path class="cls-3" d="M3092.41,873.22c-29.49,21.2-72.82,31.34-117.06,31.34-117.07,0-185.28-59.91-185.28-177.9v-203.72h-76.51v-110.61h76.51v-120.75h143.8v120.75h123.52v110.61h-123.52v201.87c0,42.41,23.04,65.45,61.76,65.45,21.21,0,42.41-6.45,58.07-18.43l38.71,101.4Z"/><path class="cls-3" d="M3137.58,251.94c0-45.17,35.95-80.19,89.41-80.19s89.41,33.19,89.41,77.43c0,47.93-35.95,82.96-89.41,82.96s-89.41-35.03-89.41-80.19Zm17.51,149.33h143.8v495.92h-143.8V401.27Z"/><path class="cls-3" d="M3571.73,412.33h127.2v110.61h-123.52v374.24h-143.8v-374.24h-76.51v-110.61h76.51v-22.12c0-111.54,68.21-184.36,191.73-184.36,40.56,0,82.96,8.29,109.69,26.73l-37.79,104.17c-15.67-11.07-35.95-17.52-58.07-17.52-42.4,0-65.44,23.05-65.44,71.9v21.2Z"/><path class="cls-3" d="M3774.51,251.94c0-45.17,35.95-80.19,89.41-80.19s89.41,33.19,89.41,77.43c0,47.93-35.95,82.96-89.41,82.96s-89.41-35.03-89.41-80.19Zm17.51,149.33h143.8v495.92h-143.8V401.27Z"/><path class="cls-3" d="M4509.16,689.79h-375.17c13.83,61.76,66.37,99.55,141.96,99.55,52.54,0,90.33-15.67,124.44-47.93l76.51,82.96c-46.09,52.54-115.22,80.19-204.64,80.19-171.45,0-282.99-107.85-282.99-255.33s113.38-255.34,264.55-255.34,258.1,97.71,258.1,257.18c0,11.06-1.84,26.73-2.77,38.71Zm-377.01-83.88h244.27c-10.14-62.68-57.15-103.24-121.68-103.24s-112.46,39.64-122.6,103.24Z"/><path class="cls-3" d="M4897.23,393.9v132.74c-11.99-.92-21.2-1.84-32.26-1.84-79.27,0-131.82,43.32-131.82,138.27v234.13h-143.8V401.27h137.35v65.45c35.03-47.93,94.02-72.82,170.53-72.82Z"/></g><g><path class="cls-2" d="M839.91,127.35V952.65c0,70.33-57.02,127.35-127.35,127.35H127.35c-70.33,0-127.35-57.02-127.35-127.35V404.84L404.84,0h307.72C782.89,0,839.91,57.02,839.91,127.35Z"/><polygon class="cls-1" points="393.69 76.82 393.69 415.03 55.48 415.03 393.69 76.82"/><path class="cls-1" d="M582,415.03c-103.89,0-188.13,84.25-188.32,188.13,0,62.96,31.57,121.69,84.06,156.75v233.84l104.25-85.53,104.25,85.53v-233.84c52.49-34.87,83.88-93.79,83.88-156.75,0-103.89-84.25-188.13-188.13-188.13Zm122.42,188.13c.18,67.73-54.7,122.61-122.24,122.79-67.73,0-122.61-54.7-122.61-122.43-.18-67.73,54.7-122.61,122.24-122.61h.37c67.55,0,122.43,54.88,122.43,122.42l-.18-.18Z"/></g></svg>